<?xml version="1.0" encoding="UTF-8"?>
<svg width="544px" height="544px" version="1.1" xmlns="http://www.w3.org/2000/svg">
 <g transform="translate(-69.981 -160.33)">
  <g transform="matrix(1.5324 0 0 1.394 -54.912 -41.792)" stroke="#000000">
   <g stroke-width=".94572px">
    <path d="m260.51 170.7-154.52 170.1 153.88 169.39 154.52-170.1-153.88-169.39z" fill="#a5001e"/>
    <path d="m259.86 171.4v-14.883l-168.04 184.98h14.165l153.88-170.1z" fill="#ff4f5a"/>
    <path d="m259.48 171.4v-14.883l168.04 184.98h-14.165l-153.88-170.1z" fill="#ff0098"/>
    <path d="m259.86 511.17v14.883l-168.04-184.98h14.165l153.88 170.1z" fill="#870031"/>
   </g>
   <path d="m122.99 175.31h108.35l6.6014 7.2666v22.301l-5.2356 7.0161h-11.837v110.75l101.98-110.75h-16.845l-5.9185-7.0161v-23.554l5.4632-5.5126h109.72l5.4632 6.0138v22.051l-248.12 280.14h-28.227l-8.1703-5.1925v-267.93h-13.683l-5.008-5.5126v-23.554l5.4632-6.5149z" fill="none" stroke-width="18.914"/>
   <path d="m259.48 511.17v14.883l168.04-184.98h-14.165l-153.88 170.1z" fill="#66002a" stroke-width=".94572px"/>
   <path d="m259.41 155.15-168.68 185.67 167.97 184.9 168.68-185.67-167.97-184.9z" fill="none" stroke-width="5.6743"/>
   <path d="m232.5 186.64 6.1166-3.5437-6.2775-6.9101h-109.29l-5.5532 6.1128v23.122l6.1568 6.7772 2.9376-6.7772-3.8631-4.2524v-16.301l2.8973-2.8349h104.3l2.5754 4.6068z" fill="#fefefe" stroke-width=".94572px"/>
   <path transform="matrix(.90139 0 0 .99223 -437.42 -185.31)" d="m828.94 369.5-4.2812 4.2812v15.719l3.75 3.75h19.812v15.188l-131.06 132.84v-147.84h21.781l4.4688-4.4688v-15.906l-4.125-3.1875h-114.62l-3.75 3.75v16.25l3.8125 3.8125h19.938v272.25l3.75 3.75h22.656l274.66-283.41v-12.5l-4.2812-4.2812h-112.5z" fill="none" stroke-width="1px"/>
   <g>
    <g stroke-width=".94572px">
     <path d="m143.48 204.87v270.62l3.1869 4.0092-2.4992 5.243-7.0615-7.7488v-265.11z" fill="#fefefe"/>
     <path d="m125.82 204.87-1.8211 6.5149h13.203l7.2843-6.5149h-18.666z" fill="#808080"/>
     <path d="m307.19 212.19 2.8973-6.5558-4.185-4.2524v-14.529l4.8289-5.3155h100.76l3.8631 5.6699 5.4727-4.2524-5.6337-6.2014h-108.33l-5.3922 5.9356v23.3l5.5934 5.8028m-87.543 111.88-10.523 28.106 118.79-131.12v-15.592l-108.27 118.6z" fill="#fefefe"/>
     <path d="m232.26 185.83 5.2356-3.7586v22.802l-6.0323 6.6402h-11.723v112.38l-10.699 27.814v-146.84h19.577l3.6421-3.2575v-15.786z" fill="#808080"/>
    </g>
    <path transform="matrix(.90139 0 0 .99223 -437.42 -185.31)" d="m828.94 369.5-4.2812 4.2812v15.719l3.75 3.75h19.812v15.188l-131.06 132.84v-147.84h21.781l4.4688-4.4688v-15.906l-4.125-3.1875h-114.62l-3.75 3.75v16.25l3.8125 3.8125h19.938v272.25l3.75 3.75h22.656l274.66-283.41v-12.5l-4.2812-4.2812h-112.5z" fill="#cccccc" stroke-width="1px"/>
    <path d="m415.35 185.93 5.4985-3.4945v21.922l-249.39 280.52h-26.477l2.5297-5.5331h20.281l247.24-281.01z" fill="#808080" stroke-width=".94572px"/>
    <path d="m327.3 205.25-5.577 6.3897h-14.569l3.4145-6.3897h16.731z" fill="#808080" stroke-width=".94572px"/>
   </g>
  </g>
 </g>
 <g transform="matrix(.14901 0 0 .12376 26.651 63.559)" fill="#cccccc" stroke="#000000" stroke-width="37.794" style="shape-inside:url(#rect60886);white-space:pre" aria-label="IEB">
  <path d="m1531.7 2716.5 28.235-143.94h492.18l-28.235 143.94h-164.43l-104.08 538.68h164.43l-28.789 143.94h-491.62l28.235-143.94h164.43l104.08-538.68z"/>
  <path d="m2597.4 3399.1h-514.32l159.44-826.57h515.98l-28.235 143.94h-351.55l-34.879 178.27h318.34l-27.128 143.94h-318.34l-42.076 216.47h351.55z"/>
  <path d="m2969.4 3023.8-47.612 244.7h109.06q86.366 0 126.78-36.539 40.968-37.093 40.968-115.15 0-47.612-29.342-70.311-29.342-22.699-90.795-22.699zm62.56-322.21-37.647 192.11h109.06q66.989 0 100.76-29.896 34.325-30.45 34.325-89.134 0-37.647-23.806-55.363t-73.632-17.716zm-132.87-130.1h266.85q116.82 0 176.05 45.951 59.792 45.951 59.792 136.75 0 89.134-52.595 143.94-52.595 54.809-149.48 65.882 76.954 6.6435 119.58 50.38 42.629 43.737 42.629 116.26 0 59.792-21.038 111.83-21.038 51.487-59.238 86.366-41.522 37.093-105.19 53.702-63.667 16.609-171.62 16.609h-266.3z"/>
 </g>
</svg>
